<?xml version="1.0" encoding="UTF-8"?>
<svg width="501px" height="418px" viewBox="0 0 501 418" xmlns="http://www.w3.org/2000/svg" xmlns:xlink="http://www.w3.org/1999/xlink" version="1.1">
 <!-- Generated by Pixelmator Pro 2.1.4 -->
 <path id="Путь" d="M499.2 235.079 L0 235.079 77.6 415.879 77.6 416.679 C77.6 439.879 154.4 458.279 248 458.279 342.4 458.279 419.2 439.879 419.2 416.679 L419.2 415.079 Z" fill="#fcf7c5" fill-opacity="1" stroke="none"/>
 <path id="Путь-1" d="M250.4 457.479 C344.8 457.479 420 439.079 420 416.679 420 416.679 419.2 415.879 419.2 415.079 L500.8 235.079 1.6 235.079" fill="#efe5ab" fill-opacity="1" stroke="none"/>
 <path id="Путь-2" d="M500.8 235.079 C500.8 268.658 388.692 295.879 250.4 295.879 112.108 295.879 -0 268.658 -0 235.079 -0 201.5 112.108 174.279 250.4 174.279 388.692 174.279 500.8 201.5 500.8 235.079 Z" fill="#e2d998" fill-opacity="1" stroke="none"/>
 <path id="Путь-3" d="M250.4 174.279 C388.8 174.279 500.8 201.479 500.8 235.079 500.8 268.679 388.8 295.879 250.4 295.879" fill="#c6b96d" fill-opacity="1" stroke="none"/>
 <path id="Путь-4" d="M250.4 207.079 C136 207.079 43.2 229.479 43.2 256.679 43.2 262.279 46.4 267.079 52.8 271.879 98.4 286.279 169.6 295.079 250.4 295.079 331.2 295.079 401.6 286.279 448 271.879 454.4 267.079 457.6 262.279 457.6 256.679 457.6 229.479 364.8 207.079 250.4 207.079 Z" fill="#f47400" fill-opacity="1" stroke="none"/>
 <path id="Путь-5" d="M250.4 295.079 C330.4 295.079 401.6 286.279 448 271.879 454.4 267.079 457.6 262.279 457.6 256.679 457.6 228.679 364.8 207.079 250.4 207.079" fill="#f25600" fill-opacity="1" stroke="none"/>
 <path id="Путь-6" d="M389.6 247.079 C389.6 253.265 364.528 258.279 333.6 258.279 302.672 258.279 277.6 253.265 277.6 247.079 277.6 240.893 302.672 235.879 333.6 235.879 364.528 235.879 389.6 240.893 389.6 247.079 Z" fill="#ff8b00" fill-opacity="1" stroke="none"/>
 <path id="Путь-7" d="M215.2 435.079 L181.6 379.079 215.2 323.079 281.6 323.079 315.2 379.079 281.6 435.079 Z" fill="#5ea304" fill-opacity="1" stroke="none"/>
 <path id="Путь-8" d="M217.6 323.079 L281.6 323.079 315.2 379.079 281.6 435.079" fill="#357503" fill-opacity="1" stroke="none"/>
 <path id="Путь-9" d="M352 243.079 C356.8 227.079 361.6 211.079 367.2 193.479 400 93.479 432.8 54.279 400 43.879 367.2 33.479 370.4 83.079 337.6 183.079 330.4 204.679 323.2 226.279 316 242.279 L352 242.279 Z" fill="#00233f" fill-opacity="1" stroke="none"/>
 <path id="Путь-10" d="M377.858 91.898 C373.254 90.341 372.619 79.918 376.44 68.618 380.261 57.317 387.091 49.418 391.695 50.975 396.299 52.531 396.934 62.954 393.113 74.255 389.292 85.556 382.462 93.455 377.858 91.898 Z" fill="#262e87" fill-opacity="1" stroke="none"/>
 <path id="Путь-11" d="M136.8 215.079 C101.6 220.679 74.4 228.679 58.4 238.279 L44 252.679 C43.2 254.279 43.2 255.879 43.2 257.479 43.2 263.079 46.4 267.879 52.8 272.679 92 284.679 149.6 293.479 216 295.079 Z" fill="#f25600" fill-opacity="1" stroke="none"/>
 <path id="Путь-12" d="M116.8 267.079 C143.2 267.079 168 237.479 168.8 211.879 169.6 167.079 129.6 152.679 113.6 115.079" fill="#357503" fill-opacity="1" stroke="none"/>
 <path id="Путь-13" d="M119.2 263.079 L119.2 263.879 118.4 264.679 C90.4 248.679 67.2 233.479 64.8 207.879 60 163.079 97.6 151.879 113.6 115.079" fill="#5ea304" fill-opacity="1" stroke="none"/>
 <path id="Путь-14" d="M118.4 265.479 C126.4 241.479 132 215.879 116 199.079 88 169.479 56 189.479 20.8 175.879" fill="#357503" fill-opacity="1" stroke="none"/>
 <path id="Путь-15" d="M118.4 265.479 C89.6 273.479 64.8 279.079 46.4 263.879 14.4 237.479 35.2 207.879 20 175.079" fill="#5ea304" fill-opacity="1" stroke="none"/>
 <path id="Путь-16" d="M211.749 214.27 C230.73 213.477 246.222 215.34 246.351 218.43 246.48 221.52 231.197 224.667 212.217 225.46 193.236 226.252 177.744 224.389 177.615 221.299 177.486 218.209 192.769 215.062 211.749 214.27 Z" fill="#ffa300" fill-opacity="1" stroke="none"/>
 <g id="group"/>
 <g id="group-1"/>
 <g id="group-2"/>
 <g id="group-3"/>
 <g id="group-4"/>
 <g id="group-5"/>
 <g id="group-6"/>
 <g id="group-7"/>
 <g id="group-8"/>
 <g id="group-9"/>
 <g id="group-10"/>
 <g id="group-11"/>
 <g id="group-12"/>
 <g id="group-13"/>
 <g id="group-14"/>
</svg>
